<?xml version="1.0" encoding="UTF-8" standalone="no"?>
<svg
   width="16"
   height="16"
   version="1.1"
   id="svg4"
   sodipodi:docname="chrome.svg"
   inkscape:version="1.1 (c4e8f9ed74, 2021-05-24)"
   xmlns:inkscape="http://www.inkscape.org/namespaces/inkscape"
   xmlns:sodipodi="http://sodipodi.sourceforge.net/DTD/sodipodi-0.dtd"
   xmlns="http://www.w3.org/2000/svg"
   xmlns:svg="http://www.w3.org/2000/svg">
  <defs
     id="defs8" />
  <sodipodi:namedview
     id="namedview6"
     pagecolor="#ffffff"
     bordercolor="#666666"
     borderopacity="1.0"
     inkscape:pageshadow="2"
     inkscape:pageopacity="0.0"
     inkscape:pagecheckerboard="0"
     showgrid="false"
     inkscape:zoom="34.5625"
     inkscape:cx="8"
     inkscape:cy="8"
     inkscape:window-width="1366"
     inkscape:window-height="736"
     inkscape:window-x="0"
     inkscape:window-y="0"
     inkscape:window-maximized="1"
     inkscape:current-layer="svg4" />
  <path
     style="fill:#c5c3c3;fill-opacity:1"
     d="M 8,0 A 8,8 0 0 0 1.695,3.08 L 4.08,7.21 A 4,4 0 0 1 8,4 H 14.92 A 8,8 0 0 0 8,0 Z M 1.078,4.01 A 8,8 0 0 0 0,8 8,8 0 0 0 6.895,15.91 L 9.279,11.79 A 4,4 0 0 1 8,12 4,4 0 0 1 4.541,10 H 4.535 Z M 8,5 A 3,3 0 0 0 5,8 3,3 0 0 0 8,11 3,3 0 0 0 11,8 3,3 0 0 0 8,5 Z M 10.639,5 A 4,4 0 0 1 12,8 4,4 0 0 1 11.461,10 H 11.465 L 8.002,16 A 8,8 0 0 0 16,8 8,8 0 0 0 15.41,5 Z"
     id="path2" />
</svg>
