<?xml version="1.0" encoding="UTF-8" standalone="no"?>
<svg
   width="32"
   height="32"
   version="1.1"
   id="svg16"
   sodipodi:docname="Discord.svg"
   inkscape:version="1.1 (c4e8f9ed74, 2021-05-24)"
   xmlns:inkscape="http://www.inkscape.org/namespaces/inkscape"
   xmlns:sodipodi="http://sodipodi.sourceforge.net/DTD/sodipodi-0.dtd"
   xmlns="http://www.w3.org/2000/svg"
   xmlns:svg="http://www.w3.org/2000/svg">
  <defs
     id="defs20" />
  <sodipodi:namedview
     id="namedview18"
     pagecolor="#ffffff"
     bordercolor="#666666"
     borderopacity="1.0"
     inkscape:pageshadow="2"
     inkscape:pageopacity="0.0"
     inkscape:pagecheckerboard="0"
     showgrid="false"
     inkscape:zoom="17.28125"
     inkscape:cx="16"
     inkscape:cy="16"
     inkscape:window-width="1366"
     inkscape:window-height="736"
     inkscape:window-x="0"
     inkscape:window-y="0"
     inkscape:window-maximized="1"
     inkscape:current-layer="svg16" />
  <rect
     style="fill:#c5c3c3;fill-opacity:1"
     width="26"
     height="26"
     x="3"
     y="2"
     rx="3"
     ry="3"
     id="rect2" />
  <path
     style="opacity:0.2;fill:#4d4d4d"
     d="m 3,25 v 1 c 0,1.662 1.338,3 3,3 h 20 l 3,3 V 31 L 26,28 H 6 C 4.338,28 3,26.662 3,25 Z"
     id="path4" />
  <path
     style="fill:#c5c3c3;fill-rule:evenodd;fill-opacity:1"
     d="m 29,31 -7,-7 h 7 z"
     id="path6" />
  <path
     style="opacity:0.2;fill:#000000"
     d="M 6,2 C 4.338,2 3,3.338 3,5 V 6 C 3,4.338 4.338,3 6,3 h 20 c 1.662,0 3,1.338 3,3 V 5 C 29,3.338 27.662,2 26,2 Z"
     id="path8" />
  <path
     style="opacity:0.2;fill-rule:evenodd"
     d="m 22,25 7,7 v -1 l -6,-6 z"
     id="path10" />
  <path
     style="opacity:0.2"
     d="m 14.175781,9.0000005 c 0,0 -1.980445,-0.04304 -4.078124,1.4980465 -2.0976783,1.541083 -3.0976572,4.730918 -3.0976572,9.326172 0,0 2.223992,2.074982 5.4433602,2.175781 0,0 0.539546,-0.634246 0.976562,-1.181641 C 11.56994,20.270965 10.869141,18.632812 10.869141,18.632812 12.573666,19.585677 13.732467,19.983424 15.5,20 c 1.767533,-0.01658 3.926335,-0.414323 5.630859,-1.367188 0,0 -0.700799,1.638153 -2.550781,2.185547 C 19.017094,21.365754 19.556641,22 19.556641,22 22.776009,21.899201 25,19.824219 25,19.824219 25,15.228965 24.000022,12.03913 21.902344,10.498047 19.804665,8.9569604 17.824219,9.0000005 17.824219,9.0000005 l -0.146485,0.171875 c 2.622073,0.7346925 3.816407,2.3730465 3.816407,2.3730465 0,0 -0.320389,-0.171846 -0.859375,-0.402343 C 18.999968,10.357811 17.000043,9.999969 15.5,10 c -1.500043,-3.1e-5 -2.499966,0.357811 -4.134765,1.142579 -0.538986,0.230497 -0.859375,0.402343 -0.859375,0.402343 0,0 1.194332,-1.638354 3.816406,-2.3730465 z M 13.5,15 c 0.838151,0 1.5146,0.668208 1.5,1.5 C 15,17.331792 14.338151,18 13.5,18 12.676558,18 12,17.331792 12,16.5 12,15.668208 12.661868,15 13.5,15 Z m 5,0 C 19.338132,15 20,15.668208 20,16.5 20,17.331792 19.323442,18 18.5,18 17.661849,18 17,17.331792 17,16.5 16.9854,15.668208 17.661849,15 18.5,15 Z"
     id="path12" />
  <path
     style="fill:#ffffff"
     d="m 14.175781,8.0000005 c 0,0 -1.980445,-0.04304 -4.078124,1.4980465 -2.0976783,1.541083 -3.0976572,4.730918 -3.0976572,9.326172 0,0 2.223992,2.074982 5.4433602,2.175781 0,0 0.539546,-0.634246 0.976562,-1.181641 C 11.56994,19.270965 10.869141,17.632812 10.869141,17.632812 12.573666,18.585677 13.732467,18.983424 15.5,19 c 1.767533,-0.01658 3.926335,-0.414323 5.630859,-1.367188 0,0 -0.700799,1.638153 -2.550781,2.185547 C 19.017094,20.365754 19.556641,21 19.556641,21 22.776009,20.899201 25,18.824219 25,18.824219 25,14.228965 24.000022,11.03913 21.902344,9.498047 19.804665,7.9569604 17.824219,8.0000005 17.824219,8.0000005 l -0.146485,0.171875 c 2.622073,0.7346925 3.816407,2.3730465 3.816407,2.3730465 0,0 -0.320389,-0.171846 -0.859375,-0.402343 C 18.999968,9.357811 17.000043,8.999969 15.5,9 c -1.500043,-3.1e-5 -2.499966,0.357811 -4.134765,1.142579 -0.538986,0.230497 -0.859375,0.402343 -0.859375,0.402343 0,0 1.194332,-1.638354 3.816406,-2.3730465 z M 13.5,14 c 0.838151,0 1.5146,0.668208 1.5,1.5 C 15,16.331792 14.338151,17 13.5,17 12.676558,17 12,16.331792 12,15.5 12,14.668208 12.661868,14 13.5,14 Z m 5,0 C 19.338132,14 20,14.668208 20,15.5 20,16.331792 19.323442,17 18.5,17 17.661849,17 17,16.331792 17,15.5 16.9854,14.668208 17.661849,14 18.5,14 Z"
     id="path14" />
  <path
     style="fill:#ffffff;fill-opacity:0;stroke-width:0.0578662"
     d="M 26.011063,27.949581 23.0601,24.998192 h -0.549516 -0.549516 l 1.474737,1.475587 1.474736,1.475588 h -9.696124 c -8.7484036,0 -9.7268443,-0.0091 -10.0104242,-0.09325 C 4.7065724,27.70853 4.3734188,27.513772 3.9652759,27.131974 3.4966869,26.693633 3.1577395,26.053161 3.0657229,25.432188 3.0255926,25.16137 3.0110482,21.77648 3.0218373,15.218807 L 3.0379747,5.4104882 3.1926394,5.0124124 C 3.5454599,4.1043233 4.1364649,3.5231847 5.0679151,3.1684432 L 5.4104882,3.0379747 15.739602,3.0218351 c 6.215654,-0.00971 10.467382,0.00543 10.676311,0.038017 1.328796,0.2072674 2.318618,1.197279 2.523752,2.524235 0.03212,0.2077531 0.04738,5.3614549 0.03802,12.8320399 L 28.962025,30.90097 Z M 12.932044,21.453888 c 0.270518,-0.326221 0.492089,-0.610565 0.49238,-0.631877 2.89e-4,-0.02131 -0.130806,-0.08237 -0.291329,-0.13569 -0.257783,-0.08562 -0.283178,-0.108123 -0.217508,-0.192716 0.04089,-0.05268 0.178386,-0.225974 0.305539,-0.385106 0.127153,-0.159132 0.235102,-0.297231 0.239886,-0.306887 0.0048,-0.0097 0.226477,0.02912 0.49265,0.08618 0.370142,0.07934 0.742506,0.103544 1.583409,0.102936 1.218677,-8.8e-4 1.95294,-0.09033 3.081925,-0.375463 0.369705,-0.09337 0.68111,-0.160845 0.692011,-0.149944 0.02444,0.02444 -0.532521,0.267053 -0.613075,0.267053 -0.148552,0 -0.115588,0.146396 0.08882,0.394459 0.413724,0.502083 0.406423,0.451123 0.08015,0.559493 -0.160523,0.05332 -0.291621,0.114377 -0.291329,0.13569 2.89e-4,0.02131 0.220409,0.303901 0.48915,0.627976 l 0.488621,0.589227 0.335442,-0.02949 c 1.666542,-0.146526 3.299332,-0.781398 4.718806,-1.834797 l 0.390597,-0.289863 -4.9e-5,-1.306003 C 24.997969,14.422393 24.110432,11.458885 22.389849,9.8700916 21.45009,9.0023146 20.006082,8.2982752 18.698221,8.0702033 18.075606,7.9616282 17.79811,7.9626148 17.705892,8.0737308 c -0.04026,0.048509 -0.06298,0.096168 -0.05048,0.1059089 0.01249,0.00974 0.231031,0.089327 0.485642,0.1768568 0.603589,0.2075016 1.283344,0.5367253 1.817728,0.8803753 0.463418,0.2980143 0.479383,0.3862336 0.03546,0.1959464 -0.391003,-0.1676036 -1.071396,-0.3379379 -1.666221,-0.417133 -0.484551,-0.064514 -0.512209,-0.062218 -0.590099,0.048987 -0.07813,0.1115458 -0.101583,0.1133842 -0.53369,0.041833 -0.63442,-0.1050514 -2.115534,-0.1576882 -2.564083,-0.091124 -0.214667,0.031856 -0.384411,0.033937 -0.395419,0.00485 -0.06093,-0.1610092 -1.394003,0.089721 -2.254039,0.4239508 -0.168232,0.065379 -0.319151,0.1055971 -0.335374,0.089374 -0.04521,-0.045212 0.758632,-0.5454785 1.277779,-0.7952162 0.254611,-0.1224819 0.671248,-0.2943099 0.925859,-0.3818399 0.254611,-0.08753 0.473151,-0.1671156 0.485642,-0.1768567 0.01249,-0.00974 -0.01023,-0.0574 -0.05049,-0.1059089 C 14.20189,7.9626165 13.924394,7.96163 13.301779,8.0702053 11.993918,8.2982773 10.54991,9.0023164 9.6101509,9.8700933 7.888243,11.46011 7.0030145,14.417001 6.9993396,18.590877 l -0.00113,1.278946 0.1609294,0.132652 c 1.2266318,1.011095 3.149421,1.819865 4.718765,1.984823 0.230261,0.0242 0.450973,0.04754 0.490472,0.05186 0.0395,0.0043 0.293147,-0.259051 0.563664,-0.585272 z"
     id="path77" />
  <path
     style="fill:#ffffff;fill-opacity:0;stroke-width:0.0578662"
     d="M 26.011063,27.949581 23.0601,24.998192 h -0.549516 -0.549516 l 1.474737,1.475587 1.474736,1.475588 h -9.696124 c -8.7484036,0 -9.7268443,-0.0091 -10.0104242,-0.09325 C 4.7065724,27.70853 4.3734188,27.513772 3.9652759,27.131974 3.4966869,26.693633 3.1577395,26.053161 3.0657229,25.432188 3.0255926,25.16137 3.0110482,21.77648 3.0218373,15.218807 L 3.0379747,5.4104882 3.1926394,5.0124124 C 3.5454599,4.1043233 4.1364649,3.5231847 5.0679151,3.1684432 L 5.4104882,3.0379747 15.739602,3.0218351 c 6.215654,-0.00971 10.467382,0.00543 10.676311,0.038017 1.328796,0.2072674 2.318618,1.197279 2.523752,2.524235 0.03212,0.2077531 0.04738,5.3614549 0.03802,12.8320399 L 28.962025,30.90097 Z M 12.932044,21.453888 c 0.270518,-0.326221 0.492089,-0.610565 0.49238,-0.631877 2.89e-4,-0.02131 -0.130806,-0.08237 -0.291329,-0.13569 -0.257783,-0.08562 -0.283178,-0.108123 -0.217508,-0.192716 0.04089,-0.05268 0.178386,-0.225974 0.305539,-0.385106 0.127153,-0.159132 0.235102,-0.297231 0.239886,-0.306887 0.0048,-0.0097 0.226477,0.02912 0.49265,0.08618 0.370142,0.07934 0.742506,0.103544 1.583409,0.102936 1.218677,-8.8e-4 1.95294,-0.09033 3.081925,-0.375463 0.369705,-0.09337 0.68111,-0.160845 0.692011,-0.149944 0.02444,0.02444 -0.532521,0.267053 -0.613075,0.267053 -0.148552,0 -0.115588,0.146396 0.08882,0.394459 0.413724,0.502083 0.406423,0.451123 0.08015,0.559493 -0.160523,0.05332 -0.291621,0.114377 -0.291329,0.13569 2.89e-4,0.02131 0.220409,0.303901 0.48915,0.627976 l 0.488621,0.589227 0.335442,-0.02949 c 1.666542,-0.146526 3.299332,-0.781398 4.718806,-1.834797 l 0.390597,-0.289863 -4.9e-5,-1.306003 C 24.997969,14.422393 24.110432,11.458885 22.389849,9.8700916 21.45009,9.0023146 20.006082,8.2982752 18.698221,8.0702033 18.075606,7.9616282 17.79811,7.9626148 17.705892,8.0737308 c -0.04026,0.048509 -0.06298,0.096168 -0.05048,0.1059089 0.01249,0.00974 0.231031,0.089327 0.485642,0.1768568 0.603589,0.2075016 1.283344,0.5367253 1.817728,0.8803753 0.463418,0.2980143 0.479383,0.3862336 0.03546,0.1959464 -0.391003,-0.1676036 -1.071396,-0.3379379 -1.666221,-0.417133 -0.484551,-0.064514 -0.512209,-0.062218 -0.590099,0.048987 -0.07813,0.1115458 -0.101583,0.1133842 -0.53369,0.041833 -0.63442,-0.1050514 -2.115534,-0.1576882 -2.564083,-0.091124 -0.214667,0.031856 -0.384411,0.033937 -0.395419,0.00485 -0.06093,-0.1610092 -1.394003,0.089721 -2.254039,0.4239508 -0.168232,0.065379 -0.319151,0.1055971 -0.335374,0.089374 -0.04521,-0.045212 0.758632,-0.5454785 1.277779,-0.7952162 0.254611,-0.1224819 0.671248,-0.2943099 0.925859,-0.3818399 0.254611,-0.08753 0.473151,-0.1671156 0.485642,-0.1768567 0.01249,-0.00974 -0.01023,-0.0574 -0.05049,-0.1059089 C 14.20189,7.9626165 13.924394,7.96163 13.301779,8.0702053 11.993918,8.2982773 10.54991,9.0023164 9.6101509,9.8700933 7.888243,11.46011 7.0030145,14.417001 6.9993396,18.590877 l -0.00113,1.278946 0.1609294,0.132652 c 1.2266318,1.011095 3.149421,1.819865 4.718765,1.984823 0.230261,0.0242 0.450973,0.04754 0.490472,0.05186 0.0395,0.0043 0.293147,-0.259051 0.563664,-0.585272 z"
     id="path116" />
  <path
     style="fill:#ffffff;fill-opacity:0;stroke-width:0.0578662"
     d="M 26.011063,27.949581 23.0601,24.998192 h -0.549516 -0.549516 l 1.474737,1.475587 1.474736,1.475588 h -9.696124 c -8.7484036,0 -9.7268443,-0.0091 -10.0104242,-0.09325 C 4.7065724,27.70853 4.3734188,27.513772 3.9652759,27.131974 3.4966869,26.693633 3.1577395,26.053161 3.0657229,25.432188 3.0255926,25.16137 3.0110482,21.77648 3.0218373,15.218807 L 3.0379747,5.4104882 3.1926394,5.0124124 C 3.5454599,4.1043233 4.1364649,3.5231847 5.0679151,3.1684432 L 5.4104882,3.0379747 15.739602,3.0218351 c 6.215654,-0.00971 10.467382,0.00543 10.676311,0.038017 1.328796,0.2072674 2.318618,1.197279 2.523752,2.524235 0.03212,0.2077531 0.04738,5.3614549 0.03802,12.8320399 L 28.962025,30.90097 Z M 12.932044,21.453888 c 0.270518,-0.326221 0.492089,-0.610565 0.49238,-0.631877 2.89e-4,-0.02131 -0.130806,-0.08237 -0.291329,-0.13569 -0.257783,-0.08562 -0.283178,-0.108123 -0.217508,-0.192716 0.04089,-0.05268 0.178386,-0.225974 0.305539,-0.385106 0.127153,-0.159132 0.235102,-0.297231 0.239886,-0.306887 0.0048,-0.0097 0.226477,0.02912 0.49265,0.08618 0.370142,0.07934 0.742506,0.103544 1.583409,0.102936 1.218677,-8.8e-4 1.95294,-0.09033 3.081925,-0.375463 0.369705,-0.09337 0.68111,-0.160845 0.692011,-0.149944 0.02444,0.02444 -0.532521,0.267053 -0.613075,0.267053 -0.148552,0 -0.115588,0.146396 0.08882,0.394459 0.413724,0.502083 0.406423,0.451123 0.08015,0.559493 -0.160523,0.05332 -0.291621,0.114377 -0.291329,0.13569 2.89e-4,0.02131 0.220409,0.303901 0.48915,0.627976 l 0.488621,0.589227 0.335442,-0.02949 c 1.666542,-0.146526 3.299332,-0.781398 4.718806,-1.834797 l 0.390597,-0.289863 -4.9e-5,-1.306003 C 24.997969,14.422393 24.110432,11.458885 22.389849,9.8700916 21.45009,9.0023146 20.006082,8.2982752 18.698221,8.0702033 18.075606,7.9616282 17.79811,7.9626148 17.705892,8.0737308 c -0.04026,0.048509 -0.06298,0.096168 -0.05048,0.1059089 0.01249,0.00974 0.231031,0.089327 0.485642,0.1768568 0.603589,0.2075016 1.283344,0.5367253 1.817728,0.8803753 0.463418,0.2980143 0.479383,0.3862336 0.03546,0.1959464 -0.391003,-0.1676036 -1.071396,-0.3379379 -1.666221,-0.417133 -0.484551,-0.064514 -0.512209,-0.062218 -0.590099,0.048987 -0.07813,0.1115458 -0.101583,0.1133842 -0.53369,0.041833 -0.63442,-0.1050514 -2.115534,-0.1576882 -2.564083,-0.091124 -0.214667,0.031856 -0.384411,0.033937 -0.395419,0.00485 -0.06093,-0.1610092 -1.394003,0.089721 -2.254039,0.4239508 -0.168232,0.065379 -0.319151,0.1055971 -0.335374,0.089374 -0.04521,-0.045212 0.758632,-0.5454785 1.277779,-0.7952162 0.254611,-0.1224819 0.671248,-0.2943099 0.925859,-0.3818399 0.254611,-0.08753 0.473151,-0.1671156 0.485642,-0.1768567 0.01249,-0.00974 -0.01023,-0.0574 -0.05049,-0.1059089 C 14.20189,7.9626165 13.924394,7.96163 13.301779,8.0702053 11.993918,8.2982773 10.54991,9.0023164 9.6101509,9.8700933 7.888243,11.46011 7.0030145,14.417001 6.9993396,18.590877 l -0.00113,1.278946 0.1609294,0.132652 c 1.2266318,1.011095 3.149421,1.819865 4.718765,1.984823 0.230261,0.0242 0.450973,0.04754 0.490472,0.05186 0.0395,0.0043 0.293147,-0.259051 0.563664,-0.585272 z"
     id="path155" />
  <path
     style="fill:#ffffff;fill-opacity:0;stroke-width:0.0578662"
     d="M 26.011063,27.949581 23.0601,24.998192 h -0.549516 -0.549516 l 1.474737,1.475587 1.474736,1.475588 h -9.696124 c -8.7484036,0 -9.7268443,-0.0091 -10.0104242,-0.09325 C 4.7065724,27.70853 4.3734188,27.513772 3.9652759,27.131974 3.4966869,26.693633 3.1577395,26.053161 3.0657229,25.432188 3.0255926,25.16137 3.0110482,21.77648 3.0218373,15.218807 L 3.0379747,5.4104882 3.1926394,5.0124124 C 3.5454599,4.1043233 4.1364649,3.5231847 5.0679151,3.1684432 L 5.4104882,3.0379747 15.739602,3.0218351 c 6.215654,-0.00971 10.467382,0.00543 10.676311,0.038017 1.328796,0.2072674 2.318618,1.197279 2.523752,2.524235 0.03212,0.2077531 0.04738,5.3614549 0.03802,12.8320399 L 28.962025,30.90097 Z M 12.932044,21.453888 c 0.270518,-0.326221 0.492089,-0.610565 0.49238,-0.631877 2.89e-4,-0.02131 -0.130806,-0.08237 -0.291329,-0.13569 -0.257783,-0.08562 -0.283178,-0.108123 -0.217508,-0.192716 0.04089,-0.05268 0.178386,-0.225974 0.305539,-0.385106 0.127153,-0.159132 0.235102,-0.297231 0.239886,-0.306887 0.0048,-0.0097 0.226477,0.02912 0.49265,0.08618 0.370142,0.07934 0.742506,0.103544 1.583409,0.102936 1.218677,-8.8e-4 1.95294,-0.09033 3.081925,-0.375463 0.369705,-0.09337 0.68111,-0.160845 0.692011,-0.149944 0.02444,0.02444 -0.532521,0.267053 -0.613075,0.267053 -0.148552,0 -0.115588,0.146396 0.08882,0.394459 0.413724,0.502083 0.406423,0.451123 0.08015,0.559493 -0.160523,0.05332 -0.291621,0.114377 -0.291329,0.13569 2.89e-4,0.02131 0.220409,0.303901 0.48915,0.627976 l 0.488621,0.589227 0.335442,-0.02949 c 1.666542,-0.146526 3.299332,-0.781398 4.718806,-1.834797 l 0.390597,-0.289863 -4.9e-5,-1.306003 C 24.997969,14.422393 24.110432,11.458885 22.389849,9.8700916 21.45009,9.0023146 20.006082,8.2982752 18.698221,8.0702033 18.075606,7.9616282 17.79811,7.9626148 17.705892,8.0737308 c -0.04026,0.048509 -0.06298,0.096168 -0.05048,0.1059089 0.01249,0.00974 0.231031,0.089327 0.485642,0.1768568 0.603589,0.2075016 1.283344,0.5367253 1.817728,0.8803753 0.463418,0.2980143 0.479383,0.3862336 0.03546,0.1959464 -0.391003,-0.1676036 -1.071396,-0.3379379 -1.666221,-0.417133 -0.484551,-0.064514 -0.512209,-0.062218 -0.590099,0.048987 -0.07813,0.1115458 -0.101583,0.1133842 -0.53369,0.041833 -0.63442,-0.1050514 -2.115534,-0.1576882 -2.564083,-0.091124 -0.214667,0.031856 -0.384411,0.033937 -0.395419,0.00485 -0.06093,-0.1610092 -1.394003,0.089721 -2.254039,0.4239508 -0.168232,0.065379 -0.319151,0.1055971 -0.335374,0.089374 -0.04521,-0.045212 0.758632,-0.5454785 1.277779,-0.7952162 0.254611,-0.1224819 0.671248,-0.2943099 0.925859,-0.3818399 0.254611,-0.08753 0.473151,-0.1671156 0.485642,-0.1768567 0.01249,-0.00974 -0.01023,-0.0574 -0.05049,-0.1059089 C 14.20189,7.9626165 13.924394,7.96163 13.301779,8.0702053 11.993918,8.2982773 10.54991,9.0023164 9.6101509,9.8700933 7.888243,11.46011 7.0030145,14.417001 6.9993396,18.590877 l -0.00113,1.278946 0.1609294,0.132652 c 1.2266318,1.011095 3.149421,1.819865 4.718765,1.984823 0.230261,0.0242 0.450973,0.04754 0.490472,0.05186 0.0395,0.0043 0.293147,-0.259051 0.563664,-0.585272 z"
     id="path194" />
  <path
     style="fill:#ffffff;fill-opacity:0;stroke-width:0.0578662"
     d="M 26.011063,27.949581 23.0601,24.998192 h -0.549516 -0.549516 l 1.474737,1.475587 1.474736,1.475588 h -9.696124 c -8.7484036,0 -9.7268443,-0.0091 -10.0104242,-0.09325 C 4.7065724,27.70853 4.3734188,27.513772 3.9652759,27.131974 3.4966869,26.693633 3.1577395,26.053161 3.0657229,25.432188 3.0255926,25.16137 3.0110482,21.77648 3.0218373,15.218807 L 3.0379747,5.4104882 3.1926394,5.0124124 C 3.5454599,4.1043233 4.1364649,3.5231847 5.0679151,3.1684432 L 5.4104882,3.0379747 15.739602,3.0218351 c 6.215654,-0.00971 10.467382,0.00543 10.676311,0.038017 1.328796,0.2072674 2.318618,1.197279 2.523752,2.524235 0.03212,0.2077531 0.04738,5.3614549 0.03802,12.8320399 L 28.962025,30.90097 Z M 12.932044,21.453888 c 0.270518,-0.326221 0.492089,-0.610565 0.49238,-0.631877 2.89e-4,-0.02131 -0.130806,-0.08237 -0.291329,-0.13569 -0.257783,-0.08562 -0.283178,-0.108123 -0.217508,-0.192716 0.04089,-0.05268 0.178386,-0.225974 0.305539,-0.385106 0.127153,-0.159132 0.235102,-0.297231 0.239886,-0.306887 0.0048,-0.0097 0.226477,0.02912 0.49265,0.08618 0.370142,0.07934 0.742506,0.103544 1.583409,0.102936 1.218677,-8.8e-4 1.95294,-0.09033 3.081925,-0.375463 0.369705,-0.09337 0.68111,-0.160845 0.692011,-0.149944 0.02444,0.02444 -0.532521,0.267053 -0.613075,0.267053 -0.148552,0 -0.115588,0.146396 0.08882,0.394459 0.413724,0.502083 0.406423,0.451123 0.08015,0.559493 -0.160523,0.05332 -0.291621,0.114377 -0.291329,0.13569 2.89e-4,0.02131 0.220409,0.303901 0.48915,0.627976 l 0.488621,0.589227 0.335442,-0.02949 c 1.666542,-0.146526 3.299332,-0.781398 4.718806,-1.834797 l 0.390597,-0.289863 -4.9e-5,-1.306003 C 24.997969,14.422393 24.110432,11.458885 22.389849,9.8700916 21.45009,9.0023146 20.006082,8.2982752 18.698221,8.0702033 18.075606,7.9616282 17.79811,7.9626148 17.705892,8.0737308 c -0.04026,0.048509 -0.06298,0.096168 -0.05048,0.1059089 0.01249,0.00974 0.231031,0.089327 0.485642,0.1768568 0.603589,0.2075016 1.283344,0.5367253 1.817728,0.8803753 0.463418,0.2980143 0.479383,0.3862336 0.03546,0.1959464 -0.391003,-0.1676036 -1.071396,-0.3379379 -1.666221,-0.417133 -0.484551,-0.064514 -0.512209,-0.062218 -0.590099,0.048987 -0.07813,0.1115458 -0.101583,0.1133842 -0.53369,0.041833 -0.63442,-0.1050514 -2.115534,-0.1576882 -2.564083,-0.091124 -0.214667,0.031856 -0.384411,0.033937 -0.395419,0.00485 -0.06093,-0.1610092 -1.394003,0.089721 -2.254039,0.4239508 -0.168232,0.065379 -0.319151,0.1055971 -0.335374,0.089374 -0.04521,-0.045212 0.758632,-0.5454785 1.277779,-0.7952162 0.254611,-0.1224819 0.671248,-0.2943099 0.925859,-0.3818399 0.254611,-0.08753 0.473151,-0.1671156 0.485642,-0.1768567 0.01249,-0.00974 -0.01023,-0.0574 -0.05049,-0.1059089 C 14.20189,7.9626165 13.924394,7.96163 13.301779,8.0702053 11.993918,8.2982773 10.54991,9.0023164 9.6101509,9.8700933 7.888243,11.46011 7.0030145,14.417001 6.9993396,18.590877 l -0.00113,1.278946 0.1609294,0.132652 c 1.2266318,1.011095 3.149421,1.819865 4.718765,1.984823 0.230261,0.0242 0.450973,0.04754 0.490472,0.05186 0.0395,0.0043 0.293147,-0.259051 0.563664,-0.585272 z"
     id="path233" />
  <path
     style="fill:#ffffff;fill-opacity:0;stroke-width:0.0578662"
     d="M 26.011063,27.949581 23.0601,24.998192 h -0.549516 -0.549516 l 1.474737,1.475587 1.474736,1.475588 h -9.696124 c -8.7484036,0 -9.7268443,-0.0091 -10.0104242,-0.09325 C 4.7065724,27.70853 4.3734188,27.513772 3.9652759,27.131974 3.4966869,26.693633 3.1577395,26.053161 3.0657229,25.432188 3.0255926,25.16137 3.0110482,21.77648 3.0218373,15.218807 L 3.0379747,5.4104882 3.1926394,5.0124124 C 3.5454599,4.1043233 4.1364649,3.5231847 5.0679151,3.1684432 L 5.4104882,3.0379747 15.739602,3.0218351 c 6.215654,-0.00971 10.467382,0.00543 10.676311,0.038017 1.328796,0.2072674 2.318618,1.197279 2.523752,2.524235 0.03212,0.2077531 0.04738,5.3614549 0.03802,12.8320399 L 28.962025,30.90097 Z M 12.932044,21.453888 c 0.270518,-0.326221 0.492089,-0.610565 0.49238,-0.631877 2.89e-4,-0.02131 -0.130806,-0.08237 -0.291329,-0.13569 -0.257783,-0.08562 -0.283178,-0.108123 -0.217508,-0.192716 0.04089,-0.05268 0.178386,-0.225974 0.305539,-0.385106 0.127153,-0.159132 0.235102,-0.297231 0.239886,-0.306887 0.0048,-0.0097 0.226477,0.02912 0.49265,0.08618 0.370142,0.07934 0.742506,0.103544 1.583409,0.102936 1.218677,-8.8e-4 1.95294,-0.09033 3.081925,-0.375463 0.369705,-0.09337 0.68111,-0.160845 0.692011,-0.149944 0.02444,0.02444 -0.532521,0.267053 -0.613075,0.267053 -0.148552,0 -0.115588,0.146396 0.08882,0.394459 0.413724,0.502083 0.406423,0.451123 0.08015,0.559493 -0.160523,0.05332 -0.291621,0.114377 -0.291329,0.13569 2.89e-4,0.02131 0.220409,0.303901 0.48915,0.627976 l 0.488621,0.589227 0.335442,-0.02949 c 1.666542,-0.146526 3.299332,-0.781398 4.718806,-1.834797 l 0.390597,-0.289863 -4.9e-5,-1.306003 C 24.997969,14.422393 24.110432,11.458885 22.389849,9.8700916 21.45009,9.0023146 20.006082,8.2982752 18.698221,8.0702033 18.075606,7.9616282 17.79811,7.9626148 17.705892,8.0737308 c -0.04026,0.048509 -0.06298,0.096168 -0.05048,0.1059089 0.01249,0.00974 0.231031,0.089327 0.485642,0.1768568 0.603589,0.2075016 1.283344,0.5367253 1.817728,0.8803753 0.463418,0.2980143 0.479383,0.3862336 0.03546,0.1959464 -0.391003,-0.1676036 -1.071396,-0.3379379 -1.666221,-0.417133 -0.484551,-0.064514 -0.512209,-0.062218 -0.590099,0.048987 -0.07813,0.1115458 -0.101583,0.1133842 -0.53369,0.041833 -0.63442,-0.1050514 -2.115534,-0.1576882 -2.564083,-0.091124 -0.214667,0.031856 -0.384411,0.033937 -0.395419,0.00485 -0.06093,-0.1610092 -1.394003,0.089721 -2.254039,0.4239508 -0.168232,0.065379 -0.319151,0.1055971 -0.335374,0.089374 -0.04521,-0.045212 0.758632,-0.5454785 1.277779,-0.7952162 0.254611,-0.1224819 0.671248,-0.2943099 0.925859,-0.3818399 0.254611,-0.08753 0.473151,-0.1671156 0.485642,-0.1768567 0.01249,-0.00974 -0.01023,-0.0574 -0.05049,-0.1059089 C 14.20189,7.9626165 13.924394,7.96163 13.301779,8.0702053 11.993918,8.2982773 10.54991,9.0023164 9.6101509,9.8700933 7.888243,11.46011 7.0030145,14.417001 6.9993396,18.590877 l -0.00113,1.278946 0.1609294,0.132652 c 1.2266318,1.011095 3.149421,1.819865 4.718765,1.984823 0.230261,0.0242 0.450973,0.04754 0.490472,0.05186 0.0395,0.0043 0.293147,-0.259051 0.563664,-0.585272 z"
     id="path272" />
  <path
     style="fill:#1a1a1a;fill-opacity:0;stroke-width:0.0578662"
     d="M 3.0372921,4.935437 C 3.1152034,3.7763742 3.6625836,2.8924341 4.6176479,2.3833902 5.3253173,2.0062063 4.6602927,2.0270271 16,2.0270271 c 11.339707,0 10.674683,-0.020821 11.382352,0.3563631 0.955065,0.5090439 1.502445,1.392984 1.580356,2.5520468 L 28.99464,5.4104882 28.884183,5.0805177 C 28.566833,4.1324948 27.829773,3.4067419 26.881246,3.1083088 L 26.473779,2.9801085 H 16 5.5262206 L 5.1187544,3.1083088 C 4.1702276,3.4067419 3.4331668,4.1324948 3.1158169,5.0805177 L 3.0053595,5.4104882 Z"
     id="path500" />
  <path
     style="fill:#1a1a1a;fill-opacity:0;stroke-width:0.0578662"
     d="M 26.011063,27.949612 23.0601,24.998192 h -0.549516 -0.549516 l 1.474737,1.475587 1.474736,1.475588 h -9.696124 c -8.7484036,0 -9.7268443,-0.0091 -10.0104242,-0.09325 C 4.7065724,27.70853 4.3734188,27.513772 3.9652759,27.131974 3.5101663,26.706242 3.1603866,26.054699 3.0682804,25.461121 3.0307606,25.219325 3.0101186,21.643974 3.0104835,15.450271 3.0109701,7.1899436 3.023205,5.7577693 3.0962518,5.4104882 3.324442,4.3256208 4.1091904,3.4717482 5.1790235,3.1442568 5.5104737,3.0427951 6.0012533,3.0379747 16,3.0379747 h 10.473779 l 0.41201,0.1295802 c 0.93559,0.2942505 1.642034,1.0053482 1.969562,1.9825355 0.10191,0.3040478 0.107361,0.8003229 0.122056,11.1103076 0.0085,5.935624 0.0085,11.657976 0,12.716339 l -0.01538,1.924295 z M 12.932044,21.453888 c 0.270518,-0.326221 0.492089,-0.610565 0.49238,-0.631877 2.89e-4,-0.02131 -0.130806,-0.08237 -0.291329,-0.13569 -0.257783,-0.08562 -0.283178,-0.108123 -0.217508,-0.192716 0.04089,-0.05268 0.178386,-0.225974 0.305539,-0.385106 0.127153,-0.159132 0.235102,-0.297231 0.239886,-0.306887 0.0048,-0.0097 0.226477,0.02912 0.49265,0.08618 0.370142,0.07934 0.742506,0.103544 1.583409,0.102936 1.218677,-8.8e-4 1.95294,-0.09033 3.081925,-0.375463 0.369705,-0.09337 0.68111,-0.160845 0.692011,-0.149944 0.02444,0.02444 -0.532521,0.267053 -0.613075,0.267053 -0.148552,0 -0.115588,0.146396 0.08882,0.394459 0.413724,0.502083 0.406423,0.451123 0.08015,0.559493 -0.160523,0.05332 -0.291621,0.114377 -0.291329,0.13569 2.89e-4,0.02131 0.220409,0.303901 0.48915,0.627976 l 0.488621,0.589227 0.335442,-0.02949 c 1.666542,-0.146526 3.299332,-0.781398 4.718806,-1.834797 l 0.390597,-0.289863 -4.9e-5,-1.306003 C 24.997969,14.422393 24.110432,11.458885 22.389849,9.8700916 21.45009,9.0023146 20.006082,8.2982752 18.698221,8.0702033 18.075606,7.9616282 17.79811,7.9626148 17.705892,8.0737308 c -0.04026,0.048509 -0.06298,0.096168 -0.05048,0.1059089 0.01249,0.00974 0.231031,0.089327 0.485642,0.1768568 0.603589,0.2075016 1.283344,0.5367253 1.817728,0.8803753 0.463418,0.2980143 0.479383,0.3862336 0.03546,0.1959464 -0.391003,-0.1676036 -1.071396,-0.3379379 -1.666221,-0.417133 -0.484551,-0.064514 -0.512209,-0.062218 -0.590099,0.048987 -0.07813,0.1115458 -0.101583,0.1133842 -0.53369,0.041833 -0.63442,-0.1050514 -2.115534,-0.1576882 -2.564083,-0.091124 -0.214667,0.031856 -0.384411,0.033937 -0.395419,0.00485 -0.06093,-0.1610092 -1.394003,0.089721 -2.254039,0.4239508 -0.168232,0.065379 -0.319151,0.1055971 -0.335374,0.089374 -0.04521,-0.045212 0.758632,-0.5454785 1.277779,-0.7952162 0.254611,-0.1224819 0.671248,-0.2943099 0.925859,-0.3818399 0.254611,-0.08753 0.473151,-0.1671156 0.485642,-0.1768567 0.01249,-0.00974 -0.01023,-0.0574 -0.05049,-0.1059089 C 14.20189,7.9626165 13.924394,7.96163 13.301779,8.0702053 11.993918,8.2982773 10.54991,9.0023164 9.6101509,9.8700933 7.888243,11.46011 7.0030145,14.417001 6.9993396,18.590877 l -0.00113,1.278946 0.1609294,0.132652 c 1.2266318,1.011095 3.149421,1.819865 4.718765,1.984823 0.230261,0.0242 0.450973,0.04754 0.490472,0.05186 0.0395,0.0043 0.293147,-0.259051 0.563664,-0.585272 z"
     id="path539" />
</svg>
