<?xml version="1.0" encoding="UTF-8" standalone="no"?>
<svg
   width="16"
   height="16"
   version="1.1"
   id="svg4"
   sodipodi:docname="terminal.svg"
   inkscape:version="1.1 (c4e8f9ed74, 2021-05-24)"
   xmlns:inkscape="http://www.inkscape.org/namespaces/inkscape"
   xmlns:sodipodi="http://sodipodi.sourceforge.net/DTD/sodipodi-0.dtd"
   xmlns="http://www.w3.org/2000/svg"
   xmlns:svg="http://www.w3.org/2000/svg">
  <defs
     id="defs8" />
  <sodipodi:namedview
     id="namedview6"
     pagecolor="#ffffff"
     bordercolor="#666666"
     borderopacity="1.0"
     inkscape:pageshadow="2"
     inkscape:pageopacity="0.0"
     inkscape:pagecheckerboard="0"
     showgrid="false"
     inkscape:zoom="34.5625"
     inkscape:cx="8"
     inkscape:cy="8"
     inkscape:window-width="1366"
     inkscape:window-height="736"
     inkscape:window-x="0"
     inkscape:window-y="0"
     inkscape:window-maximized="1"
     inkscape:current-layer="svg4" />
  <path
     style="fill:#c5c3c3;fill-opacity:1"
     d="M 2 1 C 0.892 1 0 1.892 0 3 L 0 13 C 0 14.108 0.892 15 2 15 L 14 15 C 15.108 15 16 14.108 16 13 L 16 3 C 16 1.892 15.108 1 14 1 L 2 1 z M 4 3 L 5 3 L 5 4 L 5.5 4 C 6.154 4 6.7022 4.418 6.9082 5 L 5 5 L 5 6 L 5.5 6 C 6.331 6 7 6.669 7 7.5 C 7 8.331 6.331 9 5.5 9 L 5 9 L 5 10 L 4 10 L 4 9 L 3.5 9 C 2.8458 9 2.2978 8.582 2.0918 8 L 4 8 L 4 7 L 3.5 7 C 2.669 7 2 6.331 2 5.5 C 2 4.669 2.669 4 3.5 4 L 4 4 L 4 3 z M 3.5 5 C 3.223 5 3 5.223 3 5.5 C 3 5.777 3.223 6 3.5 6 L 4 6 L 4 5 L 3.5 5 z M 5 7 L 5 8 L 5.5 8 C 5.7767 8.0129 6 7.777 6 7.5 C 6 7.223 5.777 7 5.5 7 L 5 7 z M 8 9 L 12 9 L 12 10 L 8 10 L 8 9 z"
     id="path2" />
</svg>
